<svg width="50" height="50" viewBox="0 0 40 40" fill="none" xmlns="http://www.w3.org/2000/svg">
<path d="M20 40C8.96842 40 0 31.0316 0 20C0 8.96842 8.96842 0 20 0C31.0316 0 40 8.96842 40 20C40 31.0316 31.0316 40 20 40ZM26.9053 18.6526L19.1579 10.9474C18.7789 10.5684 18.3158 10.4 17.8105 10.4C17.3053 10.4 16.8421 10.5684 16.4632 10.9474C15.7474 11.6632 15.7474 12.8842 16.4632 13.6L22.9053 20L16.5053 26.4C15.7895 27.1158 15.7895 28.3368 16.5053 29.0526C17.2211 29.7684 18.4421 29.7684 19.1579 29.0526L26.9053 21.3474C27.2421 21.0105 27.4526 20.5053 27.4526 20C27.4526 19.4947 27.2421 19.0316 26.9053 18.6526Z" fill="#BBB9B9"/>
</svg>
