<svg width="50" height="50" viewBox="0 0 40 40" fill="none" xmlns="http://www.w3.org/2000/svg">
<path d="M20 40C31.0316 40 40 31.0316 40 20C40 8.96842 31.0316 0 20 0C8.96842 0 0 8.96842 0 20C0 31.0316 8.96842 40 20 40ZM13.0947 18.6526L20.8421 10.9474C21.2211 10.5684 21.6842 10.4 22.1895 10.4C22.6947 10.4 23.1579 10.5684 23.5368 10.9474C24.2526 11.6632 24.2526 12.8842 23.5368 13.6L17.0947 20L23.4947 26.4C24.2105 27.1158 24.2105 28.3368 23.4947 29.0526C22.7789 29.7684 21.5579 29.7684 20.8421 29.0526L13.0947 21.3474C12.7579 21.0105 12.5474 20.5053 12.5474 20C12.5474 19.4947 12.7579 19.0316 13.0947 18.6526Z" fill="#BBB9B9"/>
</svg>
