<svg width="20" height="175" viewBox="0 0 20 175" fill="none" xmlns="http://www.w3.org/2000/svg">
<path d="M9.88567 0L-0.000150681 16.8269H19.7715L9.88567 0Z" fill="#D37B61"/>
<circle r="8.41346" transform="matrix(-1 0 0 1 10.1852 48.4135)" fill="#F8D763"/>
<path d="M16.1257 135.457L12.4798 129.287H19.7715L16.1257 135.457Z" fill="#6A8ADF"/>
<path d="M3.78581 135.457L0.139973 129.287H7.43164L3.78581 135.457Z" fill="#6A8ADF"/>
<path d="M9.95573 124.8L6.3099 118.63H13.6016L9.95573 124.8Z" fill="#6A8ADF"/>
<circle r="8.41346" transform="matrix(-1 0 0 1 9.55041 166.586)" fill="#D14AA7"/>
<path d="M17.9639 165.324H1.13694V167.849H17.9639L17.9639 165.324Z" fill="#141416"/>
<circle r="3.71182" transform="matrix(-1 0 0 1 15.3712 92.1151)" fill="#FFFBFB"/>
<circle r="3.71182" transform="matrix(-1 0 0 1 4.48349 92.1151)" fill="#FFFBFB"/>
<circle r="3.71182" transform="matrix(-1 0 0 1 9.92685 82.7118)" fill="#FFFBFB"/>
</svg>
